<svg xmlns="http://www.w3.org/2000/svg" width="600" height="1080" viewBox="0 0 600 1080"><defs><radialGradient id="vig" cx="0.5" cy="0.44" r="0.78"><stop offset="0.55" stop-color="#0b1412" stop-opacity="0"/><stop offset="1" stop-color="#0b1412" stop-opacity="0.85"/></radialGradient><linearGradient id="foot" x1="0" y1="0" x2="0" y2="1"><stop offset="0" stop-color="#0b1412" stop-opacity="0"/><stop offset="1" stop-color="#0b1412" stop-opacity="0.92"/></linearGradient></defs><rect width="600" height="1080" fill="#0b1412"/><path d="M0 1080 C 120 880, 60 720, 180 560 C 280 430, 240 300, 330 150 L 600 150 L 600 1080 Z" fill="#1f3d33" opacity=".34"/><path d="M160 1080 C 250 880, 190 720, 300 560 C 396 430, 356 300, 440 150" stroke="#89c9a8" stroke-width="3" fill="none" opacity=".35"/><path d="M330 1080 C 404 890, 350 730, 450 574" stroke="#89c9a8" stroke-width="2" fill="none" opacity=".2"/><circle cx="179.6" cy="1008.7" r="34.7" fill="#89c9a8" opacity=".1"/><circle cx="179.6" cy="1008.7" r="8.7" fill="#89c9a8" opacity=".95"/><circle cx="195.0" cy="949.3" r="27.4" fill="#89c9a8" opacity=".1"/><circle cx="195.0" cy="949.3" r="6.9" fill="#89c9a8" opacity=".95"/><circle cx="216.1" cy="855.0" r="26.7" fill="#89c9a8" opacity=".1"/><circle cx="216.1" cy="855.0" r="6.7" fill="#89c9a8" opacity=".95"/><circle cx="265.3" cy="758.3" r="26.6" fill="#89c9a8" opacity=".1"/><circle cx="265.3" cy="758.3" r="6.6" fill="#89c9a8" opacity=".95"/><circle cx="295.9" cy="679.5" r="29.8" fill="#89c9a8" opacity=".1"/><circle cx="295.9" cy="679.5" r="7.5" fill="#89c9a8" opacity=".95"/><circle cx="316.4" cy="605.2" r="34.2" fill="#89c9a8" opacity=".1"/><circle cx="316.4" cy="605.2" r="8.6" fill="#89c9a8" opacity=".95"/><circle cx="304.6" cy="517.2" r="34.8" fill="#89c9a8" opacity=".1"/><circle cx="304.6" cy="517.2" r="8.7" fill="#89c9a8" opacity=".95"/><circle cx="323.1" cy="441.1" r="32.7" fill="#89c9a8" opacity=".1"/><circle cx="323.1" cy="441.1" r="8.2" fill="#89c9a8" opacity=".95"/><circle cx="380.9" cy="365.4" r="26.6" fill="#89c9a8" opacity=".1"/><circle cx="380.9" cy="365.4" r="6.7" fill="#89c9a8" opacity=".95"/><circle cx="370.9" cy="288.8" r="32.0" fill="#89c9a8" opacity=".1"/><circle cx="370.9" cy="288.8" r="8.0" fill="#89c9a8" opacity=".95"/><circle cx="410.0" cy="215.7" r="24.5" fill="#89c9a8" opacity=".1"/><circle cx="410.0" cy="215.7" r="6.1" fill="#89c9a8" opacity=".95"/><path d="M21.2 1080 Q 11.2 1028.8 17.2 977.7" stroke="#0b1412" stroke-width="4" fill="none" opacity=".85"/><path d="M36.4 1080 Q 26.4 1028.7 32.4 977.4" stroke="#0b1412" stroke-width="4" fill="none" opacity=".85"/><path d="M44.2 1080 Q 34.2 1008.2 40.2 936.4" stroke="#0b1412" stroke-width="4" fill="none" opacity=".85"/><path d="M59.4 1080 Q 49.4 1023.4 55.4 966.8" stroke="#0b1412" stroke-width="4" fill="none" opacity=".85"/><path d="M75.4 1080 Q 65.4 1027.9 71.4 975.8" stroke="#0b1412" stroke-width="4" fill="none" opacity=".85"/><path d="M84.9 1080 Q 74.9 1029.7 80.9 979.4" stroke="#0b1412" stroke-width="4" fill="none" opacity=".85"/><path d="M99.2 1080 Q 89.2 1047.8 95.2 1015.6" stroke="#0b1412" stroke-width="4" fill="none" opacity=".85"/><path d="M108.3 1080 Q 98.3 1030.9 104.3 981.8" stroke="#0b1412" stroke-width="4" fill="none" opacity=".85"/><path d="M118.4 1080 Q 108.4 1018.2 114.4 956.3" stroke="#0b1412" stroke-width="4" fill="none" opacity=".85"/><path d="M135.8 1080 Q 125.8 1019.4 131.8 958.8" stroke="#0b1412" stroke-width="4" fill="none" opacity=".85"/><path d="M140.1 1080 Q 130.1 1005.1 136.1 930.1" stroke="#0b1412" stroke-width="4" fill="none" opacity=".85"/><path d="M153.7 1080 Q 143.7 1022.9 149.7 965.7" stroke="#0b1412" stroke-width="4" fill="none" opacity=".85"/><path d="M164.2 1080 Q 154.2 1007.6 160.2 935.2" stroke="#0b1412" stroke-width="4" fill="none" opacity=".85"/><path d="M182.1 1080 Q 172.1 1012.8 178.1 945.5" stroke="#0b1412" stroke-width="4" fill="none" opacity=".85"/><circle cx="567.0" cy="530.5" r="0.56" fill="#fff" opacity="0.041"/><circle cx="230.1" cy="989.1" r="0.10" fill="#fff" opacity="0.025"/><circle cx="29.7" cy="915.8" r="0.54" fill="#fff" opacity="0.036"/><circle cx="44.9" cy="87.6" r="1.04" fill="#fff" opacity="0.000"/><circle cx="238.6" cy="710.7" r="1.18" fill="#fff" opacity="0.022"/><circle cx="458.2" cy="560.9" r="0.46" fill="#fff" opacity="0.009"/><circle cx="483.6" cy="161.6" r="0.85" fill="#fff" opacity="0.023"/><circle cx="327.7" cy="342.9" r="0.67" fill="#fff" opacity="0.002"/><circle cx="363.1" cy="822.8" r="0.45" fill="#fff" opacity="0.029"/><circle cx="279.9" cy="336.3" r="0.35" fill="#fff" opacity="0.050"/><circle cx="164.0" cy="62.3" r="0.08" fill="#fff" opacity="0.004"/><circle cx="150.0" cy="838.0" r="0.09" fill="#fff" opacity="0.018"/><circle cx="322.3" cy="1045.2" r="0.16" fill="#fff" opacity="0.001"/><circle cx="404.3" cy="468.8" r="0.35" fill="#fff" opacity="0.045"/><circle cx="430.8" cy="785.2" r="0.50" fill="#fff" opacity="0.015"/><circle cx="250.9" cy="43.7" r="0.85" fill="#fff" opacity="0.050"/><circle cx="207.5" cy="402.8" r="0.46" fill="#fff" opacity="0.011"/><circle cx="491.3" cy="1076.5" r="1.01" fill="#fff" opacity="0.045"/><circle cx="591.0" cy="602.6" r="0.99" fill="#fff" opacity="0.021"/><circle cx="445.6" cy="923.1" r="0.05" fill="#fff" opacity="0.034"/><circle cx="162.5" cy="893.2" r="0.71" fill="#fff" opacity="0.013"/><circle cx="505.5" cy="957.6" r="1.11" fill="#fff" opacity="0.044"/><circle cx="3.6" cy="250.2" r="0.16" fill="#fff" opacity="0.054"/><circle cx="410.1" cy="363.4" r="0.80" fill="#fff" opacity="0.012"/><circle cx="511.3" cy="688.4" r="1.08" fill="#fff" opacity="0.019"/><circle cx="280.4" cy="422.0" r="1.10" fill="#fff" opacity="0.052"/><circle cx="327.0" cy="1024.6" r="0.81" fill="#fff" opacity="0.014"/><circle cx="546.2" cy="905.1" r="0.21" fill="#fff" opacity="0.044"/><circle cx="436.4" cy="129.0" r="0.10" fill="#fff" opacity="0.024"/><circle cx="467.7" cy="247.2" r="0.45" fill="#fff" opacity="0.050"/><circle cx="584.8" cy="381.3" r="1.05" fill="#fff" opacity="0.034"/><circle cx="556.6" cy="515.3" r="0.16" fill="#fff" opacity="0.017"/><circle cx="68.2" cy="133.1" r="0.81" fill="#fff" opacity="0.049"/><circle cx="540.9" cy="1030.8" r="0.73" fill="#fff" opacity="0.015"/><circle cx="35.9" cy="15.6" r="1.19" fill="#fff" opacity="0.041"/><circle cx="189.1" cy="1011.8" r="0.23" fill="#fff" opacity="0.026"/><circle cx="403.8" cy="280.0" r="1.04" fill="#fff" opacity="0.044"/><circle cx="323.2" cy="121.7" r="1.16" fill="#fff" opacity="0.046"/><circle cx="199.3" cy="237.6" r="1.05" fill="#fff" opacity="0.009"/><circle cx="321.2" cy="918.6" r="0.43" fill="#fff" opacity="0.049"/><circle cx="498.2" cy="196.7" r="0.19" fill="#fff" opacity="0.000"/><circle cx="599.1" cy="723.4" r="0.15" fill="#fff" opacity="0.037"/><circle cx="25.4" cy="795.1" r="0.26" fill="#fff" opacity="0.034"/><circle cx="524.5" cy="1049.7" r="1.09" fill="#fff" opacity="0.000"/><circle cx="3.6" cy="257.3" r="0.04" fill="#fff" opacity="0.051"/><circle cx="13.5" cy="372.7" r="0.39" fill="#fff" opacity="0.022"/><circle cx="579.9" cy="457.7" r="1.05" fill="#fff" opacity="0.012"/><circle cx="243.1" cy="338.6" r="0.34" fill="#fff" opacity="0.042"/><circle cx="248.0" cy="229.9" r="0.61" fill="#fff" opacity="0.027"/><circle cx="317.8" cy="1062.1" r="0.49" fill="#fff" opacity="0.049"/><circle cx="334.6" cy="274.2" r="0.74" fill="#fff" opacity="0.009"/><circle cx="459.7" cy="776.2" r="0.94" fill="#fff" opacity="0.042"/><circle cx="310.4" cy="839.2" r="0.75" fill="#fff" opacity="0.017"/><circle cx="100.1" cy="449.0" r="0.25" fill="#fff" opacity="0.052"/><circle cx="272.8" cy="764.7" r="0.19" fill="#fff" opacity="0.009"/><circle cx="389.5" cy="982.9" r="0.95" fill="#fff" opacity="0.042"/><circle cx="87.9" cy="234.0" r="0.09" fill="#fff" opacity="0.019"/><circle cx="135.7" cy="1035.8" r="0.28" fill="#fff" opacity="0.004"/><circle cx="100.2" cy="346.0" r="0.19" fill="#fff" opacity="0.034"/><circle cx="34.4" cy="611.3" r="1.18" fill="#fff" opacity="0.031"/><circle cx="406.4" cy="989.1" r="1.00" fill="#fff" opacity="0.054"/><circle cx="57.1" cy="285.4" r="0.86" fill="#fff" opacity="0.010"/><circle cx="420.1" cy="176.8" r="0.77" fill="#fff" opacity="0.039"/><circle cx="259.7" cy="375.2" r="0.58" fill="#fff" opacity="0.030"/><circle cx="581.8" cy="703.0" r="0.72" fill="#fff" opacity="0.048"/><circle cx="87.3" cy="133.5" r="0.74" fill="#fff" opacity="0.029"/><circle cx="210.9" cy="1043.3" r="0.82" fill="#fff" opacity="0.038"/><circle cx="138.6" cy="301.2" r="1.05" fill="#fff" opacity="0.034"/><circle cx="254.0" cy="610.1" r="0.63" fill="#fff" opacity="0.016"/><circle cx="22.1" cy="669.6" r="0.93" fill="#fff" opacity="0.033"/><circle cx="516.8" cy="444.8" r="0.43" fill="#fff" opacity="0.025"/><circle cx="36.4" cy="928.3" r="1.03" fill="#fff" opacity="0.035"/><circle cx="428.6" cy="25.2" r="0.51" fill="#fff" opacity="0.034"/><circle cx="291.2" cy="737.2" r="0.97" fill="#fff" opacity="0.050"/><circle cx="301.7" cy="416.6" r="0.72" fill="#fff" opacity="0.053"/><circle cx="228.3" cy="699.4" r="0.62" fill="#fff" opacity="0.035"/><circle cx="345.3" cy="708.3" r="0.08" fill="#fff" opacity="0.054"/><circle cx="38.8" cy="122.8" r="0.83" fill="#fff" opacity="0.023"/><circle cx="168.0" cy="965.0" r="0.67" fill="#fff" opacity="0.036"/><circle cx="505.2" cy="687.2" r="0.70" fill="#fff" opacity="0.013"/><circle cx="219.8" cy="787.8" r="0.78" fill="#fff" opacity="0.030"/><circle cx="125.2" cy="23.0" r="0.93" fill="#fff" opacity="0.047"/><circle cx="444.4" cy="688.0" r="0.41" fill="#fff" opacity="0.043"/><circle cx="170.7" cy="943.5" r="1.04" fill="#fff" opacity="0.031"/><circle cx="301.0" cy="370.4" r="0.97" fill="#fff" opacity="0.038"/><circle cx="341.7" cy="756.1" r="0.08" fill="#fff" opacity="0.046"/><circle cx="176.4" cy="726.2" r="0.50" fill="#fff" opacity="0.003"/><circle cx="580.0" cy="504.6" r="0.29" fill="#fff" opacity="0.040"/><circle cx="5.7" cy="195.0" r="0.18" fill="#fff" opacity="0.005"/><circle cx="597.3" cy="896.7" r="0.05" fill="#fff" opacity="0.052"/><circle cx="114.2" cy="783.5" r="0.07" fill="#fff" opacity="0.026"/><circle cx="261.4" cy="899.4" r="0.28" fill="#fff" opacity="0.021"/><circle cx="118.8" cy="815.3" r="0.59" fill="#fff" opacity="0.007"/><circle cx="556.1" cy="971.5" r="0.31" fill="#fff" opacity="0.046"/><circle cx="331.9" cy="1037.2" r="0.92" fill="#fff" opacity="0.008"/><circle cx="368.1" cy="910.6" r="0.25" fill="#fff" opacity="0.008"/><circle cx="216.6" cy="423.2" r="0.57" fill="#fff" opacity="0.028"/><circle cx="87.8" cy="222.7" r="1.19" fill="#fff" opacity="0.047"/><circle cx="294.5" cy="586.7" r="0.06" fill="#fff" opacity="0.033"/><circle cx="235.8" cy="395.5" r="1.11" fill="#fff" opacity="0.038"/><circle cx="70.9" cy="530.1" r="0.93" fill="#fff" opacity="0.005"/><circle cx="407.6" cy="709.5" r="0.86" fill="#fff" opacity="0.024"/><circle cx="4.0" cy="726.3" r="0.89" fill="#fff" opacity="0.048"/><circle cx="201.9" cy="464.6" r="0.62" fill="#fff" opacity="0.003"/><circle cx="425.7" cy="127.5" r="1.06" fill="#fff" opacity="0.017"/><circle cx="213.9" cy="957.9" r="0.49" fill="#fff" opacity="0.017"/><circle cx="562.0" cy="724.9" r="0.71" fill="#fff" opacity="0.040"/><circle cx="98.0" cy="346.1" r="0.36" fill="#fff" opacity="0.041"/><circle cx="284.5" cy="910.8" r="0.31" fill="#fff" opacity="0.017"/><circle cx="274.6" cy="946.7" r="0.94" fill="#fff" opacity="0.003"/><circle cx="377.2" cy="65.8" r="0.64" fill="#fff" opacity="0.047"/><circle cx="354.8" cy="341.9" r="0.60" fill="#fff" opacity="0.053"/><circle cx="334.9" cy="227.3" r="1.10" fill="#fff" opacity="0.006"/><circle cx="518.4" cy="954.8" r="0.92" fill="#fff" opacity="0.011"/><circle cx="188.2" cy="581.7" r="0.59" fill="#fff" opacity="0.003"/><circle cx="488.8" cy="308.4" r="0.15" fill="#fff" opacity="0.008"/><circle cx="108.2" cy="332.5" r="0.20" fill="#fff" opacity="0.013"/><circle cx="35.2" cy="129.9" r="0.01" fill="#fff" opacity="0.032"/><circle cx="203.7" cy="930.2" r="0.11" fill="#fff" opacity="0.015"/><circle cx="64.5" cy="343.1" r="1.14" fill="#fff" opacity="0.003"/><circle cx="489.5" cy="1034.9" r="0.92" fill="#fff" opacity="0.038"/><circle cx="461.1" cy="987.3" r="0.76" fill="#fff" opacity="0.007"/><circle cx="105.0" cy="1038.8" r="0.72" fill="#fff" opacity="0.045"/><circle cx="227.7" cy="400.8" r="1.19" fill="#fff" opacity="0.039"/><circle cx="414.9" cy="186.7" r="0.93" fill="#fff" opacity="0.044"/><circle cx="567.9" cy="718.2" r="0.82" fill="#fff" opacity="0.027"/><circle cx="574.2" cy="254.9" r="1.02" fill="#fff" opacity="0.033"/><circle cx="76.2" cy="517.1" r="0.92" fill="#fff" opacity="0.019"/><circle cx="513.7" cy="535.7" r="0.00" fill="#fff" opacity="0.021"/><circle cx="590.0" cy="255.1" r="0.23" fill="#fff" opacity="0.010"/><circle cx="515.2" cy="669.6" r="0.71" fill="#fff" opacity="0.014"/><circle cx="44.8" cy="344.4" r="0.59" fill="#fff" opacity="0.032"/><circle cx="335.8" cy="611.8" r="1.15" fill="#fff" opacity="0.009"/><circle cx="165.6" cy="707.9" r="0.05" fill="#fff" opacity="0.014"/><circle cx="150.5" cy="738.8" r="0.96" fill="#fff" opacity="0.043"/><circle cx="423.6" cy="936.0" r="0.74" fill="#fff" opacity="0.026"/><circle cx="338.5" cy="122.1" r="1.08" fill="#fff" opacity="0.047"/><circle cx="505.4" cy="138.9" r="0.39" fill="#fff" opacity="0.005"/><circle cx="330.8" cy="854.5" r="0.82" fill="#fff" opacity="0.046"/><circle cx="97.2" cy="514.4" r="0.75" fill="#fff" opacity="0.040"/><circle cx="147.2" cy="988.9" r="0.84" fill="#fff" opacity="0.016"/><circle cx="399.4" cy="433.3" r="0.35" fill="#fff" opacity="0.048"/><circle cx="366.4" cy="627.7" r="0.61" fill="#fff" opacity="0.055"/><circle cx="462.5" cy="845.0" r="0.21" fill="#fff" opacity="0.045"/><circle cx="228.7" cy="79.0" r="1.01" fill="#fff" opacity="0.047"/><circle cx="10.1" cy="146.1" r="0.76" fill="#fff" opacity="0.001"/><circle cx="353.0" cy="167.0" r="0.85" fill="#fff" opacity="0.019"/><circle cx="443.4" cy="657.6" r="0.89" fill="#fff" opacity="0.011"/><circle cx="140.9" cy="366.6" r="0.27" fill="#fff" opacity="0.020"/><circle cx="512.6" cy="536.9" r="0.05" fill="#fff" opacity="0.050"/><circle cx="441.1" cy="352.0" r="0.78" fill="#fff" opacity="0.054"/><circle cx="48.4" cy="494.4" r="0.73" fill="#fff" opacity="0.040"/><circle cx="178.5" cy="616.9" r="0.65" fill="#fff" opacity="0.002"/><circle cx="2.1" cy="341.2" r="1.14" fill="#fff" opacity="0.046"/><circle cx="578.0" cy="582.2" r="0.70" fill="#fff" opacity="0.010"/><circle cx="558.1" cy="725.9" r="0.93" fill="#fff" opacity="0.049"/><circle cx="549.3" cy="166.5" r="1.11" fill="#fff" opacity="0.009"/><circle cx="581.4" cy="610.9" r="1.20" fill="#fff" opacity="0.027"/><circle cx="4.9" cy="391.2" r="0.84" fill="#fff" opacity="0.043"/><circle cx="458.1" cy="676.7" r="0.21" fill="#fff" opacity="0.027"/><circle cx="440.1" cy="1078.2" r="0.70" fill="#fff" opacity="0.019"/><circle cx="407.8" cy="1056.9" r="0.13" fill="#fff" opacity="0.049"/><circle cx="215.3" cy="507.7" r="0.06" fill="#fff" opacity="0.022"/><circle cx="329.5" cy="97.3" r="0.03" fill="#fff" opacity="0.015"/><circle cx="544.4" cy="343.3" r="0.66" fill="#fff" opacity="0.043"/><circle cx="88.3" cy="848.5" r="0.13" fill="#fff" opacity="0.052"/><circle cx="170.4" cy="648.3" r="0.04" fill="#fff" opacity="0.008"/><circle cx="288.7" cy="155.3" r="0.80" fill="#fff" opacity="0.019"/><circle cx="365.4" cy="564.6" r="0.81" fill="#fff" opacity="0.033"/><circle cx="363.0" cy="326.4" r="0.03" fill="#fff" opacity="0.020"/><circle cx="599.2" cy="406.0" r="0.97" fill="#fff" opacity="0.036"/><circle cx="366.3" cy="335.7" r="0.54" fill="#fff" opacity="0.001"/><circle cx="23.3" cy="758.0" r="0.44" fill="#fff" opacity="0.041"/><circle cx="92.5" cy="100.2" r="0.59" fill="#fff" opacity="0.051"/><circle cx="501.3" cy="769.4" r="0.81" fill="#fff" opacity="0.047"/><circle cx="227.1" cy="209.7" r="0.36" fill="#fff" opacity="0.019"/><circle cx="414.0" cy="188.3" r="0.04" fill="#fff" opacity="0.023"/><circle cx="389.0" cy="1019.4" r="0.52" fill="#fff" opacity="0.052"/><circle cx="120.0" cy="477.7" r="0.22" fill="#fff" opacity="0.021"/><circle cx="573.3" cy="306.0" r="1.11" fill="#fff" opacity="0.047"/><circle cx="535.3" cy="460.8" r="0.91" fill="#fff" opacity="0.001"/><circle cx="245.6" cy="516.6" r="0.26" fill="#fff" opacity="0.034"/><circle cx="309.8" cy="866.0" r="0.02" fill="#fff" opacity="0.030"/><circle cx="25.5" cy="830.7" r="0.37" fill="#fff" opacity="0.050"/><circle cx="104.6" cy="1067.7" r="0.82" fill="#fff" opacity="0.034"/><circle cx="557.2" cy="883.7" r="0.72" fill="#fff" opacity="0.032"/><circle cx="457.3" cy="355.3" r="0.17" fill="#fff" opacity="0.007"/><circle cx="54.9" cy="972.1" r="1.04" fill="#fff" opacity="0.035"/><circle cx="361.2" cy="351.5" r="0.39" fill="#fff" opacity="0.026"/><circle cx="451.0" cy="550.9" r="0.16" fill="#fff" opacity="0.040"/><circle cx="511.5" cy="48.8" r="0.22" fill="#fff" opacity="0.012"/><circle cx="322.0" cy="327.8" r="0.30" fill="#fff" opacity="0.046"/><circle cx="71.0" cy="81.9" r="0.14" fill="#fff" opacity="0.017"/><circle cx="551.2" cy="909.1" r="0.21" fill="#fff" opacity="0.054"/><circle cx="264.3" cy="328.6" r="0.81" fill="#fff" opacity="0.007"/><circle cx="579.6" cy="970.9" r="0.45" fill="#fff" opacity="0.043"/><circle cx="123.2" cy="712.7" r="0.01" fill="#fff" opacity="0.039"/><circle cx="284.5" cy="1035.7" r="0.10" fill="#fff" opacity="0.025"/><circle cx="312.9" cy="95.8" r="0.81" fill="#fff" opacity="0.009"/><circle cx="432.0" cy="774.3" r="0.07" fill="#fff" opacity="0.032"/><circle cx="486.9" cy="521.9" r="0.97" fill="#fff" opacity="0.055"/><circle cx="159.2" cy="165.0" r="0.11" fill="#fff" opacity="0.007"/><circle cx="426.7" cy="388.6" r="0.27" fill="#fff" opacity="0.027"/><circle cx="250.4" cy="1050.1" r="1.12" fill="#fff" opacity="0.048"/><circle cx="31.8" cy="446.4" r="0.13" fill="#fff" opacity="0.048"/><circle cx="499.1" cy="583.6" r="0.05" fill="#fff" opacity="0.051"/><circle cx="568.3" cy="665.2" r="1.09" fill="#fff" opacity="0.051"/><circle cx="67.3" cy="430.5" r="0.15" fill="#fff" opacity="0.007"/><circle cx="452.0" cy="264.0" r="0.63" fill="#fff" opacity="0.010"/><circle cx="412.2" cy="476.5" r="0.62" fill="#fff" opacity="0.041"/><circle cx="441.9" cy="909.5" r="0.31" fill="#fff" opacity="0.016"/><circle cx="92.5" cy="17.5" r="0.10" fill="#fff" opacity="0.049"/><circle cx="87.0" cy="293.1" r="1.10" fill="#fff" opacity="0.023"/><circle cx="186.0" cy="726.8" r="0.67" fill="#fff" opacity="0.016"/><circle cx="132.9" cy="37.8" r="0.65" fill="#fff" opacity="0.001"/><circle cx="461.6" cy="269.6" r="0.15" fill="#fff" opacity="0.021"/><circle cx="323.8" cy="765.7" r="0.33" fill="#fff" opacity="0.048"/><circle cx="187.5" cy="885.7" r="0.54" fill="#fff" opacity="0.022"/><circle cx="596.6" cy="354.3" r="0.53" fill="#fff" opacity="0.051"/><circle cx="404.2" cy="942.0" r="0.76" fill="#fff" opacity="0.017"/><circle cx="216.0" cy="20.7" r="0.02" fill="#fff" opacity="0.007"/><circle cx="108.1" cy="394.5" r="0.25" fill="#fff" opacity="0.016"/><circle cx="279.1" cy="757.8" r="0.32" fill="#fff" opacity="0.036"/><circle cx="183.4" cy="843.0" r="0.56" fill="#fff" opacity="0.006"/><circle cx="436.3" cy="878.2" r="0.10" fill="#fff" opacity="0.044"/><circle cx="127.3" cy="963.3" r="0.82" fill="#fff" opacity="0.027"/><circle cx="37.9" cy="941.0" r="0.53" fill="#fff" opacity="0.048"/><circle cx="424.0" cy="774.2" r="0.11" fill="#fff" opacity="0.010"/><circle cx="152.6" cy="631.1" r="0.68" fill="#fff" opacity="0.016"/><circle cx="395.5" cy="617.0" r="0.92" fill="#fff" opacity="0.030"/><circle cx="153.8" cy="98.5" r="0.12" fill="#fff" opacity="0.032"/><circle cx="551.6" cy="278.9" r="0.08" fill="#fff" opacity="0.019"/><circle cx="327.2" cy="56.2" r="0.62" fill="#fff" opacity="0.039"/><circle cx="100.1" cy="365.8" r="1.18" fill="#fff" opacity="0.000"/><circle cx="56.3" cy="483.5" r="0.81" fill="#fff" opacity="0.053"/><circle cx="298.2" cy="266.8" r="0.54" fill="#fff" opacity="0.032"/><circle cx="535.8" cy="928.9" r="0.49" fill="#fff" opacity="0.052"/><circle cx="225.4" cy="1026.6" r="0.91" fill="#fff" opacity="0.012"/><circle cx="471.3" cy="518.0" r="0.96" fill="#fff" opacity="0.016"/><circle cx="352.6" cy="1074.5" r="0.16" fill="#fff" opacity="0.028"/><circle cx="16.3" cy="213.2" r="0.27" fill="#fff" opacity="0.054"/><circle cx="442.1" cy="527.0" r="0.90" fill="#fff" opacity="0.041"/><circle cx="591.3" cy="289.3" r="0.00" fill="#fff" opacity="0.031"/><circle cx="439.5" cy="1003.2" r="0.56" fill="#fff" opacity="0.041"/><circle cx="56.8" cy="434.0" r="1.03" fill="#fff" opacity="0.006"/><circle cx="436.6" cy="626.5" r="0.26" fill="#fff" opacity="0.005"/><circle cx="371.0" cy="585.4" r="1.07" fill="#fff" opacity="0.029"/><circle cx="321.3" cy="39.0" r="0.74" fill="#fff" opacity="0.044"/><circle cx="338.0" cy="670.2" r="0.31" fill="#fff" opacity="0.032"/><circle cx="520.6" cy="84.4" r="0.29" fill="#fff" opacity="0.020"/><circle cx="151.6" cy="904.1" r="0.16" fill="#fff" opacity="0.026"/><circle cx="357.1" cy="395.7" r="0.10" fill="#fff" opacity="0.053"/><circle cx="144.6" cy="614.7" r="0.16" fill="#fff" opacity="0.021"/><circle cx="83.8" cy="910.3" r="0.06" fill="#fff" opacity="0.052"/><circle cx="210.2" cy="108.3" r="1.10" fill="#fff" opacity="0.029"/><circle cx="524.0" cy="138.7" r="0.77" fill="#fff" opacity="0.019"/><circle cx="245.9" cy="862.5" r="0.60" fill="#fff" opacity="0.028"/><circle cx="351.3" cy="430.3" r="0.52" fill="#fff" opacity="0.002"/><circle cx="593.0" cy="991.1" r="0.55" fill="#fff" opacity="0.002"/><circle cx="385.1" cy="149.6" r="1.18" fill="#fff" opacity="0.034"/><rect width="600" height="1080" fill="url(#vig)"/><rect y="820" width="600" height="260" fill="url(#foot)"/><rect x="42" y="972" width="58" height="3" fill="#89c9a8"/></svg>